<svg width="124" height="50" viewBox="0 0 124 50" fill="none" xmlns="http://www.w3.org/2000/svg">
<g clip-path="url(#clip0_60_10307)">
<path d="M67.0315 21.4267L62.5377 14.4906H60.1778V21.4267H58.0898V4.62122H63.6727C65.3291 4.62122 66.6001 5.12121 67.508 6.0996C68.416 7.07704 68.87 8.23682 68.87 9.57892C68.87 10.6936 68.5295 11.6936 67.826 12.6034C67.1225 13.5131 66.147 14.1043 64.8761 14.3543L69.6419 21.4267H67.0315ZM60.1778 6.64471V12.4887H63.2187C65.5786 12.4887 66.7136 11.1926 66.7136 9.53287C66.7136 7.87309 65.6246 6.64471 63.6952 6.64471H60.1778Z" fill="#39B44A"/>
<path d="M72.0918 21.4267V4.21143H74.0437V10.7612C74.7922 9.64658 76.2451 8.94169 77.9016 8.94169C79.241 8.94169 80.375 9.37402 81.3064 10.2612C82.2369 11.1485 82.6909 12.3985 82.6909 14.0592V21.4276H80.6714V14.6278C80.6714 12.172 79.4005 10.8298 77.517 10.8298C76.4956 10.8298 75.6786 11.1936 75.0436 11.8985C74.4311 12.6033 74.1131 13.5131 74.1131 14.6278V21.4276H72.0927L72.0918 21.4267Z" fill="#39B44A"/>
<path d="M93.7202 9.26025H95.9676L90.8388 22.905C89.8398 25.5657 88.5689 26.5892 86.7539 26.5892C85.9595 26.5892 85.347 26.4304 84.8705 26.1343L85.0975 24.3383C85.6649 24.5883 86.1639 24.702 86.5729 24.702C87.5943 24.702 88.3888 23.9745 88.9788 22.5413L89.4553 21.3589L84.1904 9.26119H86.5279L90.3857 18.5845L93.7221 9.26119L93.7202 9.26025Z" fill="#39B44A"/>
<path d="M98.0322 21.4266V9.26026H100.007V10.9886C100.779 9.62398 102.072 8.94165 103.865 8.94165C105.226 8.94165 106.361 9.37398 107.292 10.2612C108.222 11.1484 108.676 12.3984 108.676 14.0591V21.4276H106.657V14.6503C106.657 12.1945 105.363 10.8298 103.48 10.8298C102.459 10.8298 101.642 11.1935 101.007 11.8984C100.372 12.6033 100.054 13.5356 100.054 14.6503V21.4276H98.0332L98.0322 21.4266Z" fill="#39B44A"/>
<path d="M112.99 10.8289C114.192 9.57795 115.714 8.96423 117.551 8.96423C119.389 8.96423 120.887 9.57795 122.09 10.8289C123.292 12.0573 123.906 13.5582 123.906 15.3317C123.906 17.1052 123.316 18.6522 122.113 19.8796C120.91 21.108 119.39 21.7218 117.551 21.7218C115.713 21.7218 114.192 21.108 112.99 19.8796C111.786 18.6513 111.197 17.1278 111.197 15.3317C111.197 13.5357 111.787 12.0573 112.99 10.8289ZM120.615 12.171C119.775 11.2838 118.754 10.8289 117.551 10.8289C116.349 10.8289 115.327 11.2838 114.488 12.171C113.648 13.0582 113.239 14.1043 113.239 15.3317C113.239 16.5592 113.648 17.6513 114.488 18.5385C115.327 19.4257 116.349 19.858 117.551 19.858C118.754 19.858 119.775 19.4257 120.615 18.5385C121.454 17.6513 121.863 16.5827 121.863 15.3317C121.863 14.0808 121.454 13.0582 120.615 12.171Z" fill="#39B44A"/>
<path d="M59.2879 37.7782C57.7261 36.2556 56.9561 34.3054 56.9561 31.9248C56.9561 29.5441 57.7477 27.5507 59.331 26.0075C60.9359 24.4426 62.8615 23.671 65.1296 23.671C67.9754 23.671 70.5435 25 71.9336 26.9943L69.9432 28.9022C68.6591 27.2941 67.0974 26.5009 65.2571 26.5009C63.7807 26.5009 62.5182 27.0159 61.4912 28.0441C60.4856 29.0733 59.9716 30.3599 59.9716 31.9248C59.9716 33.4896 60.4641 34.7114 61.4696 35.7199C62.4751 36.7274 63.7376 37.2208 65.2355 37.2208C67.1828 37.2208 68.7661 36.4276 70.007 34.8195L72.0396 36.6635C70.5632 38.6569 67.996 40.0291 65.0855 40.0291C62.7959 40.0291 60.8486 39.2791 59.2869 37.7782H59.2879Z" fill="#39B44A"/>
<path d="M73.9014 39.7932V28.1513H76.5755V29.7593C77.2818 28.4943 78.3727 27.8514 79.8068 27.8514C80.2993 27.8514 80.7701 27.937 81.1979 28.0873L80.9624 30.7668C80.4916 30.6165 80.0423 30.5309 79.6146 30.5309C77.8812 30.5309 76.6834 31.6888 76.6834 34.1118V39.7932H73.9023H73.9014Z" fill="#39B44A"/>
<path d="M93.3944 34.9698H84.5362C84.9001 36.5779 86.0979 37.6493 88.0883 37.6493C89.5009 37.6493 90.784 37.2424 91.918 36.4491L93.0305 38.4426C91.5973 39.5149 89.9061 40.0506 87.9804 40.0506C83.6151 40.0506 81.6895 37.0488 81.6895 33.9614C81.6895 32.2038 82.2457 30.7452 83.3581 29.6089C84.4921 28.451 85.9469 27.8721 87.7234 27.8721C89.4999 27.8721 90.7831 28.4078 91.8533 29.4585C92.9442 30.5093 93.4798 31.9238 93.4798 33.7255C93.4798 34.0469 93.4582 34.4548 93.3944 34.9689V34.9698ZM84.5362 32.8467H90.7409C90.5055 31.217 89.3283 30.2095 87.7244 30.2095C86.1204 30.2095 84.9001 31.217 84.5362 32.8467Z" fill="#39B44A"/>
<path d="M104.435 23.499H107.216V39.7932H104.499V38.2706C103.536 39.4717 102.295 40.0714 100.797 40.0714C99.1495 40.0714 97.7594 39.4924 96.6676 38.3345C95.5767 37.155 95.0205 35.6973 95.0205 33.9605C95.0205 32.2236 95.5767 30.8091 96.6676 29.6296C97.78 28.4501 99.1495 27.8712 100.776 27.8712C102.252 27.8712 103.472 28.4501 104.435 29.6296V23.498V23.499ZM103.643 36.4915C104.264 35.8054 104.585 34.9689 104.585 33.9614C104.585 32.9539 104.264 32.139 103.623 31.4529C103.002 30.7668 102.189 30.4238 101.183 30.4238C100.177 30.4238 99.3643 30.7668 98.7443 31.4529C98.1233 32.139 97.8025 32.9755 97.8025 33.9614C97.8025 34.9473 98.1233 35.8054 98.7443 36.4915C99.3643 37.1776 100.177 37.5206 101.183 37.5206C102.188 37.5206 103.023 37.1776 103.643 36.4915Z" fill="#39B44A"/>
<path d="M109.741 24.9999C109.741 23.9924 110.533 23.2415 111.538 23.2415C112.544 23.2415 113.293 23.9915 113.293 24.9999C113.293 26.0084 112.545 26.7584 111.538 26.7584C110.532 26.7584 109.741 26.0291 109.741 24.9999ZM112.908 39.7932H110.105V28.1512H112.908V39.7932Z" fill="#39B44A"/>
<path d="M123.906 39.1071C122.986 39.7499 121.852 40.0723 120.547 40.0723C117.915 40.0723 116.567 38.5075 116.567 35.5272V30.5103H114.642V28.1522H116.61V24.0356H119.371V28.1522H123.265V30.5103H119.371V35.42C119.371 36.8138 119.927 37.5215 121.061 37.5215C121.703 37.5215 122.366 37.3289 123.03 36.921L123.907 39.108L123.906 39.1071Z" fill="#39B44A"/>
<path d="M24.954 49.8872C7.78345 50.39 -0.385356 42.2039 0.115522 25C-0.386294 7.79416 7.78345 -0.390049 24.954 0.111831C42.1245 -0.390049 50.2933 7.79322 49.7924 25C50.2942 42.2049 42.1245 50.39 24.954 49.8881V49.8872Z" fill="#39B44A"/>
<path d="M12.6689 18.9944C12.6689 22.1326 13.4314 25.0921 14.7812 27.6983C16.1506 30.345 18.1269 32.6269 20.5263 34.3572C22.0927 34.2933 23.6113 34.0367 25.0567 33.6128C27.4635 32.907 29.6715 31.7322 31.5746 30.1946C32.5567 29.4032 33.4572 28.5151 34.2619 27.5442C35.4926 26.063 36.5018 24.3891 37.2372 22.5762C35.7111 20.517 33.777 18.7801 31.555 17.485C31.2454 17.3046 30.9303 17.1326 30.6095 16.97C29.5393 16.4249 28.409 15.9794 27.2328 15.6448C27.2243 15.7265 27.2196 15.8083 27.2196 15.892C27.2196 17.2529 28.3208 18.3553 29.6781 18.3553C29.7456 18.3553 29.8141 18.3525 29.8807 18.3468C28.862 20.094 27.5714 21.6626 26.0678 22.9944C24.9985 23.9418 23.8223 24.7688 22.5589 25.4559C22.3356 25.3346 22.1171 25.2096 21.8995 25.0809C20.6613 24.3403 19.5142 23.4634 18.4805 22.4681C18.7526 23.9399 19.1953 25.3534 19.7871 26.6842C19.8303 26.7829 19.8744 26.8816 19.9194 26.9784C19.8097 26.9032 19.6999 26.828 19.592 26.75C16.4573 24.5245 14.0289 21.3647 12.712 17.6749C12.682 18.11 12.667 18.5499 12.667 18.9935L12.6689 18.9944ZM22.8384 26.6946C23.1901 26.423 23.6178 26.2444 24.084 26.1974C24.1665 26.1889 24.251 26.1842 24.3354 26.1842C24.8991 26.1842 25.4197 26.3741 25.8333 26.6946C25.9299 26.7679 26.019 26.8478 26.1016 26.9361C25.9609 26.8938 25.8211 26.8497 25.6823 26.8036C25.2959 27.0574 24.8334 27.2049 24.3363 27.2049C23.7726 27.2049 23.252 27.0151 22.8384 26.6946Z" fill="#052D1B"/>
</g>
<defs>
<clipPath id="clip0_60_10307">
<rect width="124" height="50" fill="white"/>
</clipPath>
</defs>
</svg>
